# xmcd CD database file
#
# Track frame offsets:
#	150
#	18575
#	35657
#	51915
#
# Disc length: 894 seconds
#
# Revision: 0
# Processed by: cddbd v1.5.2PL0 Copyright (c) Steve Scherf et al.
# Submitted via: CdAid (MTCDDB.DLL V2003.12.21)
#
DISCID=30037c04
DTITLE=Rodrigo and Netinho - Rodrigo and Netinho
DYEAR=2000
DGENRE=Country
TTITLE0=Dois Estranhos
TTITLE1=Ainda Te Amo
TTITLE2=Entre as Estrelas do Céu
TTITLE3=Eclipse de Amor
EXTD=ID3G:   2 YEAR: 2000
EXTT0=
EXTT1=
EXTT2=
EXTT3=
PLAYORDER=
